<?xml version="1.0" encoding="UTF-8" standalone="no"?>
<!-- Created with Inkscape (http://www.inkscape.org/) -->

<svg
   xmlns:dc="http://purl.org/dc/elements/1.1/"
   xmlns:cc="http://creativecommons.org/ns#"
   xmlns:rdf="http://www.w3.org/1999/02/22-rdf-syntax-ns#"
   xmlns:svg="http://www.w3.org/2000/svg"
   xmlns="http://www.w3.org/2000/svg"
   xmlns:xlink="http://www.w3.org/1999/xlink"
   xmlns:sodipodi="http://sodipodi.sourceforge.net/DTD/sodipodi-0.dtd"
   xmlns:inkscape="http://www.inkscape.org/namespaces/inkscape"
   width="354.33069"
   height="354.33069"
   id="svg2"
   version="1.1"
   inkscape:version="0.92.3 (2405546, 2018-03-11)"
   sodipodi:docname="charra-logo.svg"
   inkscape:export-filename=""
   inkscape:export-xdpi="138.73"
   inkscape:export-ydpi="138.73">
  <defs
     id="defs4">
    <linearGradient
       inkscape:collect="always"
       id="linearGradient3968">
      <stop
         offset="0"
         id="stop3970" />
      <stop
         style="stop-color:#ffffff;stop-opacity:0;"
         offset="1"
         id="stop3972" />
    </linearGradient>
    <radialGradient
       inkscape:collect="always"
       xlink:href="#linearGradient3968"
       id="radialGradient3872"
       gradientUnits="userSpaceOnUse"
       gradientTransform="matrix(5.7764668e-8,1.9999996,-3.4999993,1.0108879e-7,2417.967,-151.85602)"
       cx="75.927986"
       cy="690.84784"
       fx="75.927986"
       fy="690.84784"
       r="177.16538" />
  </defs>
  <sodipodi:namedview
     id="base"
     pagecolor="#ffffff"
     bordercolor="#666666"
     borderopacity="1.0"
     inkscape:pageopacity="0.0"
     inkscape:pageshadow="2"
     inkscape:zoom="1"
     inkscape:cx="-163.37988"
     inkscape:cy="171.42656"
     inkscape:document-units="px"
     inkscape:current-layer="layer1"
     showgrid="true"
     units="cm"
     inkscape:window-width="1920"
     inkscape:window-height="1031"
     inkscape:window-x="1920"
     inkscape:window-y="25"
     inkscape:window-maximized="1"
     showguides="true"
     inkscape:guide-bbox="true"
     inkscape:snap-bbox="true"
     inkscape:bbox-paths="true"
     inkscape:bbox-nodes="false"
     inkscape:snap-bbox-edge-midpoints="false"
     inkscape:snap-bbox-midpoints="false"
     inkscape:object-paths="true"
     inkscape:snap-intersection-paths="true"
     inkscape:object-nodes="true"
     inkscape:snap-smooth-nodes="true"
     inkscape:snap-midpoints="true"
     inkscape:snap-object-midpoints="true"
     inkscape:snap-center="true"
     inkscape:snap-grids="false">
    <inkscape:grid
       type="xygrid"
       id="grid3763"
       empspacing="5"
       visible="true"
       enabled="true"
       snapvisiblegridlinesonly="true"
       units="cm"
       spacingx="4.4291339"
       spacingy="4.4291339"
       originx="0"
       originy="0" />
  </sodipodi:namedview>
  <metadata
     id="metadata7">
    <rdf:RDF>
      <cc:Work
         rdf:about="">
        <dc:format>image/svg+xml</dc:format>
        <dc:type
           rdf:resource="http://purl.org/dc/dcmitype/StillImage" />
        <dc:title />
      </cc:Work>
    </rdf:RDF>
  </metadata>
  <g
     inkscape:label="Layer 1"
     inkscape:groupmode="layer"
     id="layer1"
     transform="translate(0,-698.03017)">
    <path
       id="rect3823"
       style="fill:#198472;fill-opacity:1;stroke:none"
       d="m 0.01304366,1022.8301 c 0,16.358 13.17279034,29.5308 29.53081034,29.5308 H 198.47106 c 16.358,0 29.5308,-13.1728 29.5308,-29.5308 v -44.27023 c 0,-16.35802 -13.1728,-29.53082 -29.5308,-29.53082 l -53.82477,3e-5 c -23.36856,0 -42.13478,-18.81824 -42.13478,-42.18686 v -63.28031 c 0,-23.36862 18.76622,-42.18687 42.13478,-42.18687 l 53.82477,-3e-5 c 16.358,0 29.5308,-13.17279 29.5308,-29.53081 v -44.27017 c 0,-16.35804 -13.1728,-29.53081 -29.5308,-29.53081 l -168.927206,3e-5 c -16.35802,0 -29.53081034,13.17277 -29.53081034,29.53081 V 1000.695 Z"
       inkscape:connector-curvature="0"
       sodipodi:nodetypes="sssssccssccssssscs" />
    <path
       style="fill:#353535;fill-opacity:1;stroke:none"
       d="m 280.50586,0 c -16.35804,0 -29.52734,13.169334 -29.52734,29.527344 v 53.8125 c 0,16.455445 -9.3115,30.644486 -22.97657,37.605466 v 0.0137 h -0.0273 c -5.73424,2.91575 -12.22864,4.56836 -19.13086,4.56836 h -53.82422 c -16.358,0 -29.53125,13.17325 -29.53125,29.53125 v 44.26953 c 0,16.35803 13.17325,29.53126 29.53125,29.53126 h 53.82422 c 23.36856,0 42.13477,18.81888 42.13477,42.1875 0,0 3.1e-4,54.05552 0,54.00585 0,16.358 13.16929,29.52735 29.52734,29.52735 h 44.29102 c 16.35804,0 29.52734,-13.16935 29.52734,-29.52735 V 29.527344 C 354.32422,13.169334 341.15492,0 324.79688,0 Z"
       id="path837"
       inkscape:connector-curvature="0"
       sodipodi:nodetypes="scccccssssssccssssss"
       transform="translate(0,698.03017)" />
  </g>
</svg>
